<svg width="48" height="48" viewBox="0 0 100 100" fill="none" xmlns="http://www.w3.org/2000/svg">
  <rect width="100" height="100" rx="20" fill="url(#bg)"/>
  
  <!-- Church building -->
  <rect x="35" y="45" width="30" height="40" rx="2" fill="white"/>
  <rect x="42" y="60" width="8" height="12" rx="1" fill="#3B82F6"/>
  <rect x="54" y="60" width="8" height="12" rx="1" fill="#3B82F6"/>
  
  <!-- Roof -->
  <path d="M30 47L50 25L70 47" stroke="white" strokeWidth="4" strokeLinecap="round" strokeLinejoin="round"/>
  
  <!-- Cross on top -->
  <rect x="48" y="28" width="4" height="12" fill="white"/>
  <rect x="44" y="32" width="12" height="4" fill="white"/>
  
  <!-- Flow wave -->
  <path
    d="M15 80C20 75 30 75 35 80C40 85 50 85 55 80C60 75 70 75 75 80C80 85 90 85 95 80"
    stroke="white"
    strokeWidth="5"
    strokeLinecap="round"
    fill="none"
    opacity="0.7"
  />
  
  <defs>
    <linearGradient id="bg" x1="0%" y1="0%" x2="100%" y2="100%">
      <stop offset="0%" stopColor="#3B82F6"/>
      <stop offset="50%" stopColor="#8B5CF6"/>
      <stop offset="100%" stopColor="#EC4899"/>
    </linearGradient>
  </defs>
</svg>
